<svg xmlns="http://www.w3.org/2000/svg" xmlns:xlink="http://www.w3.org/1999/xlink" fill="none" stroke-width="6" stroke-linejoin="round" stroke-linecap="round" stroke="#fff" viewBox="0 0 1920 1080">
<defs>
<path id="design" fill="none" d="M23.1-6.8c0,0-14,6.3-25.5,13c7.9,7.3,26.2,15.7,26.2,15.7S2.5,2.5,0,0"/>
<path id="print" fill="none" transform="translate(0 10)" d="M21.4,19.1c0,0-6.2-3.9-9.7-7.3S1.4,2.1-2,1C2.5-2.8,9.2-8,13-10.7c2.4-1.7,11.9-5.9,11.9-5.9"/>
<path id="apparel" fill="none" transform="translate(-10 10)" d="M21,13.7C21,13.7,4.1,2.3-3,0.4c7.7-5.5,28.6-16.9,28.6-16.9"/>
<path id="promo" fill="none" transform="translate(0 10)" d="M19,19c0,0-2.4-7-7.6-11.7C5.6,1.9,0.8,0.9-2,0C1.6-3.6,8.8-11,22.6-15.1C15.2-10-1.7,0.1-3.5,0.8"/>
<path id="web" fill="none" transform="translate(-10 10)" d="M19.5,12.5C19.5,12.5,4.5,3-6,0c5-3.4,28-17.9,28-17.9"/>
<path id="marketing" fill="none" transform="translate(0 7)" d="M15.1-10.5L-4-1c0,0,15.3,8.8,30.4,25.6"/>
<path id="experiential" fill="none" transform="translate(0 10)" d="M11.3-17.8c0,0-4.9,9.4-11.3,17.8c4.2,1.2,6.9,4.5,8.2,10"/>
</defs>
<rect width="1920" height="1080" fill="#000"/>
<path id="line_design" d="M978.3 477.8c25.4-15.6 62.3-34.4 78.9-71.7 14.1-31.4 11.3-80.4 10.5-90.5-.8-10.1-4.3-35.7-4.3-35.7"/>
<path id="line_print" d="M1111.4 483.3s9.6-29.3 34.5-65.6c23.6-34.4 36-57 66.7-92.3 38.4-44.2 82.3-65.1 82.3-65.1"/>
<path id="line_apparel" d="M1124.6 524.7s15.8 8.8 49.4 13.7c33.6 4.8 53.2 2 70.4-1.3 17.2-3.2 31.4-17.2 35.4-27.1 4-9.9.5-24.4-13.8-28.2-14.4-3.8-19.8 7-19 14.2.7 7.2 9.7 17.2 22.3 19.2s33.8 2.2 66.3-2.7c26.6-4 46.7 2 46.7 2"/>
<path id="line_promo" d="M1161.9 610.8s15.9-7.1 31.4-5.9 26.8 5 46.4 18.8c19.5 13.8 37 39.7 48.5 62.4 11.5 22.8 22 49.5 28.4 63.3 6.3 13.8 18.4 39.1 33.3 54.5 13.1 13.5 33.8 23.9 57.6 14.6"/>
<path id="line_web" d="M776.1 581.7s-22.6 39.8-32.7 61.6c-10.1 21.8-19.1 43.6-22.6 59.6-4.1 19-2.4 43.8 12.1 53.5 9 6 33.5 14.8 53.7 8.6 20.1-6.2 19.5-28.2 16.4-36.1s-15.6-30.3-40.2-12c-25.6 19-34 50-37.4 64.8-2.9 12.8-4.8 44.3 14.7 61.3 11.2 9.8 31.5 17.3 54.5 4.7 23-12.5 40.8-39.2 40.8-39.2"/>
<path id="line_marketing" d="M681.6 534.4s-60.5-6.7-107.1-2.2C528 536.8 496.8 551.9 473 571c-23.8 19.1-51 50.6-65.7 94.3"/>
<path id="line_experiential" d="M758.5 462.3s-15.4-43.7-33-63.9c-15.8-18.1-31.5-29.6-56.9-32.3-20.1-2.2-39.3 2.6-40.5 13.5-1.3 10.9 16 17.5 24.3 12.4 8.3-5.2 19.6-13.4 15.7-38.3-3.9-25.5-28.2-42.4-44.1-51.5-15.9-9.1-35.9-17.3-60.9-19.7"/>

<use id="arr_design" x="1063.39" y="269.89" transform="rotate(82.26 1063.39 279.89)" xlink:href="#design" class="vis"></use>
<use id="arr_print" x="1294.9" y="250.29" transform="rotate(153.71 1294.9 260.29)" xlink:href="#print" class="vis"></use>
<use id="arr_apparel" x="1382.3" y="504.5" transform="rotate(195.22 1382.3 514.5)" xlink:href="#apparel" class="vis"></use>
<use id="arr_promo" x="1407.5" y="808.49" transform="rotate(159.2 1407.5 818.49)" xlink:href="#promo" class="vis"></use>
<use id="arr_web" x="835.39" y="798.49" transform="rotate(124.5 835.39 808.49)" xlink:href="#web" class="vis"></use>
<use id="arr_marketing" x="407.29" y="655.29" transform="rotate(288.74 407.29 665.29)" xlink:href="#marketing" class="vis"></use>
<use id="arr_experiential" x="563" y="272.5" transform="rotate(5.68 563 282.5)" xlink:href="#experiential" class="vis"></use>

<image href="your_brand.svg" x="699.77" y="489.82" width="440" height="207"/>
<image id="img_design" href="design.svg" x="694.22" y="107.15" width="471" height="210"/>
<image id="img_print" href="print.svg" x="1327.201" y="79.649" width="387" height="270"/>
<image id="img_apparel" href="apparel.svg" x="1419.14" y="398.25" width="401" height="210"/>
<image id="img_promo" href="promo.svg" x="1442.91" y="723.88" width="382" height="197"/>
<image id="img_web" href="web.svg" x="831.066" y="746.86" width="483" height="205"/>
<image id="img_marketing" href="marketing.svg" x="106.455" y="639.031" width="511" height="325"/>
<image id="img_experiential" href="experiential.svg" x="85.84" y="153.94" width="437" height="305"/>
</svg>